<svg id="Capa_3" data-name="Capa 3" xmlns="http://www.w3.org/2000/svg" viewBox="0 0 818.71 387.93">
    <defs>
        <style>
            .cls-1,.cls-4{fill:#83bb26;}.cls-2{fill:#fff;}.cls-3{fill:#878888;}.cls-4,.cls-5{stroke:#000;stroke-miterlimit:10;stroke-width:0.75px;}.cls-5{fill:none;}</style>
    </defs>
    <rect class="cls-1" x="574.62" y="75.82" width="241.01" height="236.11" rx="30.13" />
    <path
        d="M649.09,426.41H461.25A29.4,29.4,0,0,1,431.88,397V213.38A29.4,29.4,0,0,1,461.25,184H649.09a29.41,29.41,0,0,1,29.38,29.38V397A29.41,29.41,0,0,1,649.09,426.41ZM461.25,188.73a24.67,24.67,0,0,0-24.64,24.65V397a24.67,24.67,0,0,0,24.64,24.65H649.09A24.68,24.68,0,0,0,673.74,397V213.38a24.68,24.68,0,0,0-24.65-24.65Z"
        transform="translate(140.25 -110.54)" />
    <path
        d="M-38.9,234.55l-48.56.11a55.15,55.15,0,0,0-34,12.92c-16,13.62-18.38,31.82-18.81,35.83q1.51,42.46,3,84.94h34.11V291.3c-.12-1.05-1.14-12.22,7.67-20,8.1-7.14,18-5.63,19.25-5.42l25.44-.41a41.9,41.9,0,0,0,8.61-13A42.19,42.19,0,0,0-38.9,234.55Z"
        transform="translate(140.25 -110.54)" />
    <path
        d="M66.68,308.27a69.33,69.33,0,0,0,.79-7s.1-2.4.1-4.85c0-21.89-7.27-39.69-20.07-51.61C30.24,228.7,8.62,228.27,1.15,228.15a78.88,78.88,0,0,0-35.41,7.92c.5,3.14,2,15.22-5.66,26.29a34.75,34.75,0,0,1-11.48,10.4l-15.91.88a82.45,82.45,0,0,0-4.41,26.7c0,7.93.06,34.06,19.94,53.21,12.05,11.62,29.15,18,50.09,18,8,0,43.54-.88,57.7-25.67a43.17,43.17,0,0,0,5.3-16.59l-36.14.21a22.43,22.43,0,0,1-5.07,6.72c-7.09,6.35-16.31,6-20.75,5.86-4-.13-11.51-.35-18.36-5.3C-31.92,327.47-31,310.3-31,308.94ZM.63,257.63c5.91,0,22.9,0,27.75,25.88H-30.46C-26.51,267-15.48,257.63.63,257.63Z"
        transform="translate(140.25 -110.54)" />
    <path
        d="M144.61,248.47c-2.26-2.73-14.43-16.94-34-17.91-17.76-.88-30.59,9.65-36.11,14.18a63.62,63.62,0,0,0-10.5,11,89.52,89.52,0,0,1,8.54,25.89,89.48,89.48,0,0,1-.32,31.16l-23,.19.6,12.54H67.12a62.57,62.57,0,0,1-7.87,25.15,55.76,55.76,0,0,0,14.36,15.69c13.46,9.91,27.67,10.66,36.33,11,9.11.36,32.43,1.28,51.24-15.57a62.75,62.75,0,0,0,17.6-27.55q-.06-72.28-.13-144.57H144.54Q144.58,219.07,144.61,248.47ZM113,347.88c-22.09,0-30-22.06-30-42.71,0-25.77,11.93-41.78,31.13-41.78,14.71,0,30.43,9.64,30.43,36.69v6.72C144.54,333.29,133.33,347.88,113,347.88Z"
        transform="translate(140.25 -110.54)" />
    <path
        d="M362.5,287c-19.72-4.95-29.75-2.85-34.48-10.75a15.34,15.34,0,0,1-.67-13.88c4.93-10.57,21.73-9.71,22.84-9.63,3.08.21,10.24.69,15.67,6.49a21.09,21.09,0,0,1,5.38,11.87l32.92.67c-.79-4.7-3.89-19.5-17-30.9-12.95-11.24-27.53-12.11-34.71-12.54-6.73-.4-23.72-.36-39.64,10.52a59.27,59.27,0,0,0-10.3,9,65.26,65.26,0,0,1,19.48,34,63.52,63.52,0,0,1,.1,25.33,127.46,127.46,0,0,1,29.46,4.68c12.24,3.47,21.28,6.17,24,13.66,2.13,5.92-.92,11.52-1.12,11.87-4.25,7.53-14.51,8.26-21.05,8.73-8.19.59-14.5-1.73-19.7-3.58a68.52,68.52,0,0,1-17.7-9.41,32.36,32.36,0,0,1-12,24.87,91.26,91.26,0,0,0,28.13,12.08,75.34,75.34,0,0,0,20.26,2.47c6.09-.16,33.49-.91,46.35-21A42.15,42.15,0,0,0,405,328.45c0-3.84.16-13.66-5.4-22.3C392.1,294.42,378,290.88,362.5,287Z"
        transform="translate(140.25 -110.54)" />
    <rect class="cls-2" x="621.8" y="124.01" width="34.1" height="130.54" />
    <path class="cls-2"
        d="M585.55,233.47a65,65,0,0,0-24.86,2.46c-19.82,5.44-32.35,17.91-37.84,24.19l-3.18,153.63h31.87q.09-29.69.2-59.35A44.66,44.66,0,0,0,565.4,364a49.5,49.5,0,0,0,14.78,3.8c18.91,1.68,34.59-10.23,35.83-11.19,21.8-17,21.06-47.28,20.83-57.11-.19-7.73-1-41.32-24.86-57.1C601.37,235.4,589.11,233.83,585.55,233.47Zm-6.49,27.32c18.32,0,24.86,20.06,24.86,38.83,0,23.43-9.9,38-25.82,38-12.21,0-25.25-8.76-25.25-33.35v-6.11C552.85,274.06,562.16,260.79,579.06,260.79Z"
        transform="translate(140.25 -110.54)" />
    <path
        d="M316.27,310.74a63.7,63.7,0,0,0,.79-7s.11-2.4.11-4.85c0-21.88-7.27-39.68-20.07-51.61-17.57-16.38-40-16.61-46.35-16.63-36.47-.11-59.63,27.13-63.23,31.51l-.81,81.51A69.86,69.86,0,0,0,197.81,356c19.21,16.8,42.39,18,50.1,18,8,0,43.54-.88,57.7-25.68a43.08,43.08,0,0,0,5.3-16.58l-36.14.21a22.35,22.35,0,0,1-5.08,6.71c-7.09,6.35-16.3,6-20.75,5.86-3.95-.12-11.5-.34-18.35-5.3-12.91-9.34-12.05-26.51-12-27.88Zm-66-50.64c5.91,0,22.9,0,27.75,25.89H219.14C223.09,269.43,234.12,260.1,250.23,260.1Z"
        transform="translate(140.25 -110.54)" />
    <rect class="cls-2" x="621.8" y="90.01" width="34.1" height="25.75" />
    <path class="cls-2"
        d="M540.54,197.11c11.1-.62,22.2-.94,33.3-1.32l33.29-.68c11.1-.1,22.2-.25,33.29-.21l8.34,0a16.77,16.77,0,0,1,9.82,3.07,16.41,16.41,0,0,1,3.52,3.59,16.7,16.7,0,0,1,2.54,4.59,22.54,22.54,0,0,1,1.09,9.67v-.29c-.08,19.72-.25,39.44-.82,59.16-.42,19.72-1,39.44-2.11,59.16a.43.43,0,0,1-.47.42.44.44,0,0,1-.42-.42c-1.08-19.72-1.69-39.44-2.12-59.16s-.73-39.44-.81-59.16v-.12l0-.16a16,16,0,0,0-.77-6.74,9.84,9.84,0,0,0-1.5-2.65,10.13,10.13,0,0,0-2.22-2.37,9.93,9.93,0,0,0-5.82-1.8l-8.3-.08c-11.1-.08-22.2-.36-33.29-.58L573.82,200c-11.1-.5-22.19-.94-33.28-1.69a.6.6,0,0,1-.56-.64A.61.61,0,0,1,540.54,197.11Z"
        transform="translate(140.25 -110.54)" />
    <rect class="cls-1" x="326.96" y="27.75" width="36.73" height="36.73" rx="1.8" />
    <path
        d="M214.93,176.79H195.22a10.29,10.29,0,0,1-10.28-10.28V146.8a10.29,10.29,0,0,1,10.28-10.28h19.71a10.29,10.29,0,0,1,10.28,10.28v19.71A10.29,10.29,0,0,1,214.93,176.79Zm-19.71-36.72a6.74,6.74,0,0,0-6.74,6.73v19.71a6.74,6.74,0,0,0,6.74,6.74h19.71a6.74,6.74,0,0,0,6.73-6.74V146.8a6.74,6.74,0,0,0-6.73-6.73Z"
        transform="translate(140.25 -110.54)" />
    <rect class="cls-3" x="373.82" y="71.64" width="36.73" height="36.73" rx="1.8" />
    <path
        d="M261.79,220.69h-19.7A10.31,10.31,0,0,1,231.8,210.4V190.7a10.31,10.31,0,0,1,10.29-10.29h19.7a10.31,10.31,0,0,1,10.29,10.29v19.7A10.31,10.31,0,0,1,261.79,220.69ZM242.09,184a6.74,6.74,0,0,0-6.74,6.74v19.7a6.74,6.74,0,0,0,6.74,6.74h19.7a6.74,6.74,0,0,0,6.74-6.74V190.7a6.74,6.74,0,0,0-6.74-6.74Z"
        transform="translate(140.25 -110.54)" />
    <rect class="cls-3" x="373.82" y="271.85" width="36.73" height="36.73" rx="1.8" />
    <path
        d="M261.79,420.89h-19.7a10.3,10.3,0,0,1-10.29-10.28V390.9a10.3,10.3,0,0,1,10.29-10.28h19.7a10.3,10.3,0,0,1,10.29,10.28v19.71A10.3,10.3,0,0,1,261.79,420.89Zm-19.7-36.73a6.75,6.75,0,0,0-6.74,6.74v19.71a6.74,6.74,0,0,0,6.74,6.73h19.7a6.74,6.74,0,0,0,6.74-6.73V390.9a6.75,6.75,0,0,0-6.74-6.74Z"
        transform="translate(140.25 -110.54)" />
    <rect class="cls-3" x="324.27" y="313.5" width="40.31" height="40.31" rx="1.8" />
    <path
        d="M215.82,466.13H192.53a10.3,10.3,0,0,1-10.28-10.29V432.55a10.29,10.29,0,0,1,10.28-10.28h23.29a10.29,10.29,0,0,1,10.28,10.28v23.29A10.3,10.3,0,0,1,215.82,466.13Zm-23.29-40.31a6.74,6.74,0,0,0-6.73,6.73v23.29a6.74,6.74,0,0,0,6.73,6.74h23.29a6.74,6.74,0,0,0,6.74-6.74V432.55a6.74,6.74,0,0,0-6.74-6.73Z"
        transform="translate(140.25 -110.54)" />
    <rect class="cls-3" x="476.55" y="271.85" width="72.11" height="72.11" rx="1.8" />
    <path
        d="M399.9,456.27H344.81A10.29,10.29,0,0,1,334.53,446V390.9a10.29,10.29,0,0,1,10.28-10.28H399.9a10.29,10.29,0,0,1,10.29,10.28V446A10.29,10.29,0,0,1,399.9,456.27Zm-55.09-72.11a6.75,6.75,0,0,0-6.73,6.74V446a6.74,6.74,0,0,0,6.73,6.74H399.9a6.74,6.74,0,0,0,6.74-6.74V390.9a6.75,6.75,0,0,0-6.74-6.74Z"
        transform="translate(140.25 -110.54)" />
    <rect class="cls-3" x="476.55" y="35.59" width="72.11" height="72.11" rx="1.8" />
    <path
        d="M399.9,220H344.81a10.29,10.29,0,0,1-10.28-10.28V154.64a10.29,10.29,0,0,1,10.28-10.28H399.9a10.29,10.29,0,0,1,10.29,10.28v55.09A10.29,10.29,0,0,1,399.9,220Zm-55.09-72.1a6.74,6.74,0,0,0-6.73,6.73v55.09a6.74,6.74,0,0,0,6.73,6.74H399.9a6.74,6.74,0,0,0,6.74-6.74V154.64a6.74,6.74,0,0,0-6.74-6.73Z"
        transform="translate(140.25 -110.54)" />
    <rect class="cls-4" x="579.86" y="324.85" width="62.7" height="62.7" rx="1.8" />
    <rect class="cls-2" x="579.86" y="1.77" width="62.7" height="62.7" rx="1.8" />
    <path
        d="M493.81,176.79H448.12a10.3,10.3,0,0,1-10.28-10.28V120.82a10.3,10.3,0,0,1,10.28-10.28h45.69a10.3,10.3,0,0,1,10.28,10.28v45.69A10.29,10.29,0,0,1,493.81,176.79Zm-45.69-62.7a6.74,6.74,0,0,0-6.73,6.73v45.69a6.74,6.74,0,0,0,6.73,6.74h45.69a6.75,6.75,0,0,0,6.74-6.74V120.82a6.75,6.75,0,0,0-6.74-6.73Z"
        transform="translate(140.25 -110.54)" />
    <path class="cls-5"
        d="M548.15,425.84v36.83a11.48,11.48,0,0,1-2.53,5.42,12.13,12.13,0,0,1-8.07,4H503.36"
        transform="translate(140.25 -110.54)" />
    <path
        d="M549.93,186.37h-3.55V149.53a10.14,10.14,0,0,0-2.11-4.27,10.3,10.3,0,0,0-6.86-3.41h-34v-3.55h34.18A13.86,13.86,0,0,1,547,143a13.36,13.36,0,0,1,2.94,6.25Z"
        transform="translate(140.25 -110.54)" />
    <path class="cls-5"
        d="M548.15,425.84v36.83a11.48,11.48,0,0,1-2.53,5.42,12.13,12.13,0,0,1-8.07,4H503.36"
        transform="translate(140.25 -110.54)" />
    <path
        d="M439.61,476l-55.95-.24c-3.28,0-7.65-1.25-10.06-4.65a10.21,10.21,0,0,1-1.79-5.87l-.1-10.7,3.54,0,.11,10.7a6.75,6.75,0,0,0,1.13,3.86c1.64,2.31,4.79,3.14,7.19,3.15l55.95.24Z"
        transform="translate(140.25 -110.54)" />
    <path
        d="M334.8,436c-17.32-.12-32.6-.25-44.88-.35-16-.14-26.87-.21-30.64-.19-1.68,0-6.19.06-9.2-3.11a10,10,0,0,1-2.52-5.65l.08-8,3.55,0-.1,7.77a6.37,6.37,0,0,0,1.57,3.42c1.94,2,5.28,2,6.54,2,3.81,0,14.74.06,30.75.19,12.28.11,27.55.24,44.87.35Z"
        transform="translate(140.25 -110.54)" />
    <path d="M337,450.77l-112.63-.62v-3.54l111.51.35C336.22,448.23,336.59,449.5,337,450.77Z"
        transform="translate(140.25 -110.54)" />
    <path
        d="M375.25,146.15l-3.54,0,.1-10.69a10.24,10.24,0,0,1,1.79-5.88c2.41-3.4,6.78-4.63,10.06-4.65l55.95-.24,0,3.55-55.95.24c-2.4,0-5.55.85-7.19,3.15a6.77,6.77,0,0,0-1.13,3.88Z"
        transform="translate(140.25 -110.54)" />
    <path
        d="M251.09,183l-3.55,0,.11-10.69c0-3.49,1.09-4.92,1.66-5.7,2.72-4,7.51-4.73,10.13-4.82l76.85-.55,0,3.55-76.8.54c-1.52.06-5.37.48-7.17,3.12a5.56,5.56,0,0,0-1.15,3.9Z"
        transform="translate(140.25 -110.54)" />
    <polygon points="363.87 43.86 363.68 42.08 363.86 40.31 476.87 40.13 476.88 43.68 363.87 43.86" />
</svg>