<svg xmlns="http://www.w3.org/2000/svg" viewBox="0 0 1225.03 416.95" fill="#ffffff">
    <path
        d="M-199.65,387.63c-5.95-1.78-10.81-3.43-14-4.57-22.53-6.87-37.81-25.3-37.94-44.45-.16-24.95,25.47-39.54,30.27-42.27,13.07-7.43,25.59-8.08,40.73-8.86A159.15,159.15,0,0,1-138.92,291c39.34,8.26,72.61,27.74,90.56,39.58l37.61-56.2c-25.54-18.09-65.79-41-117.39-49.41-32.42-5.31-56.72-2.86-63.06-2.15-17.58,2-41.35,4.65-65.92,18.59-10.81,6.14-56.95,32.32-64,84.68-.36,2.73-5.9,49.26,25.55,83.1,11.25,12.1,22.52,17.51,39.3,25.35,26.6,12.43,44,14.28,107,26.68,48.39,9.54,62.53,13.26,72.9,27.12,2.33,3.11,13.45,18.74,9.89,38.33-3.49,19.17-18.75,29.61-23.67,33-11.33,7.75-23.08,10.16-38.45,11.41-19.66,1.61-46.61,3.55-83.06-6.33-42.24-11.45-73.33-32.3-92.74-48.18Q-323,543.31-341.61,570.1c34,29.57,72.5,49.65,114.29,59.67,13.35,3.21,37.2,9.51,69,8.76,27.26-.65,75.87-1.8,115.88-36.64,10.71-9.32,38.33-33.38,43.53-74.38.53-4.2,5.37-47.75-23.67-82.4-30.62-36.55-81.48-42.37-98.57-44.32C-137.74,398.89-163.2,398.55-199.65,387.63Z"
        transform="translate(341.61 -221.63)" />
    <path
        d="M881.57,490.45A122.93,122.93,0,0,0,835,414.25c20.46-20.81,32.72-49.08,31.66-79.64-1.77-51-40.91-95-93.07-104.63a29.73,29.73,0,0,0-5.07-.5l-187.64-2.54-.81,60.22,184.79,2.49c23.14,5.29,40.86,25.14,41.62,47,.92,26.43-22.19,50-50.6,51.89L581.22,388,581,448.17l175.6.63h.11l1.09,0h0c31.13-1,59,21.27,64.47,52.11,4.81,27.31-10.79,55.73-31.42,66a42.74,42.74,0,0,1-7.25,2.84l-7,.84-197.79-1.23q.21,29.58.43,59.17l218.33.79C856.08,610.64,892.21,551,881.57,490.45Z"
        transform="translate(341.61 -221.63)" />
    <path
        d="M372,266.75l-48.23,47.67,48.23.05v46.44l-186.63-.65V226.74l-155.82.73.18,40.15,115.5-.54v93L98.78,360l-.15,40.15,360.69,1.27.15-40.15L412.11,361V314.52l48.24.06-48-47.5,115.2.54.18-40.15L372,226.74Z"
        transform="translate(341.61 -221.63)" />
    <polygon
        points="735.66 187.13 508.09 187.76 508.21 227.91 599.64 227.66 600.27 406.64 600.27 406.95 640.42 406.5 639.78 227.55 735.77 227.28 735.66 187.13" />
</svg>