<svg xmlns="http://www.w3.org/2000/svg" viewBox="0 0 624.16 623.8"
    fill="#ffffff">
    <path
        d="M424.59,128.84c0,20.39-.21,40.78.05,61.17a69.23,69.23,0,0,1-68.38,69.59c-38.32,0-76.65.2-115,0-33.16-.19-60.35-22.65-67.3-55.08a63,63,0,0,1-1.43-13.21c0-43.57.06-87.15-.09-130.73,0-3.57,1.2-5.13,4.35-6.45A312.69,312.69,0,0,1,317,30a308.44,308.44,0,0,1,104.1,24.31c3,1.29,3.59,3.08,3.58,6C424.55,83.12,424.59,106,424.59,128.84Z"
        transform="translate(13.22 -29.44)" />
    <path
        d="M534,544.93v-5.39q0-93,0-186c0-7.08.92-6.43-6.2-6.44H422.28l0-.8c4.07-.79,8.16-1.5,12.21-2.39A127.47,127.47,0,0,0,532,242.65a137.26,137.26,0,0,0,2.07-25V138.15c9.51,5.27,38.41,49.78,50.93,78.93q40.93,95.29,17.47,196.42C591,463,568.15,506.9,535.11,545.42Z"
        transform="translate(13.22 -29.44)" />
    <path
        d="M62,544.93a302.5,302.5,0,0,1-48.5-76.3A299.34,299.34,0,0,1-11.4,376.24q-13.18-130.51,69-232.85c1.34-1.67,2.76-3.26,4.18-4.86.17-.2.55-.22,1.1-.42.75,1.7.37,3.5.37,5.2,0,25,0,50,0,75,0,18.65,3.34,36.69,11.37,53.58,18.84,39.64,49.79,64.05,92.87,72.92l4.83,1c-1.08,2.7-3.41,1.25-5,1.25-32.88.11-65.77.08-98.65.09-5.32,0-5.33,0-5.34,5.3q0,93.71-.07,187.41C63.22,541.5,64.58,543.77,62,544.93Z"
        transform="translate(13.22 -29.44)" />
    <path
        d="M298.59,497.79,219.78,347.16H376.57c.75,2-.72,3.39-1.5,4.88q-23.49,45-47.05,90-13.25,25.35-26.53,50.68C300.75,494.16,299.9,495.52,298.59,497.79Z"
        transform="translate(13.22 -29.44)" />
    <path
        d="M280.77,653.15a229.68,229.68,0,0,1-28-2.7,316.32,316.32,0,0,1-76.16-21.4c-3-1.27-4.16-2.72-4.15-6.12q.18-87,.09-174.09c0-.5.05-1,.07-1.49.55.4-.17-.07.48-.14.14,0,.37,0,.42.11q53.57,102.09,107.09,204.21A4.91,4.91,0,0,1,280.77,653.15Z"
        transform="translate(13.22 -29.44)" />
    <path
        d="M315.89,653.23C352,584.19,387.7,516,423.58,447.45c1.28,1.23,1,2.4,1,3.42q0,86.33.08,172.64c0,3-1,4.34-3.67,5.45a312.32,312.32,0,0,1-79.58,21.89C333.28,651.94,325.15,652.75,315.89,653.23Z"
        transform="translate(13.22 -29.44)" />
    <path
        d="M62,544.93c1.25-1.79.65-3.83.65-5.75q.06-93,0-186c0-7.15-.46-6.66,6.68-6.66q48.6,0,97.2,0c1.91,0,4,.62,5.73-.72,2.36-.43,4.46.46,7.55,1.6h-111c-5.7,0-5.31-.34-5.31,5.38q0,93.41,0,186.82A40.6,40.6,0,0,1,63.4,545C63.3,545.73,62.47,545.7,62,544.93Z"
        transform="translate(13.22 -29.44)" />
</svg>